<svg xmlns="http://www.w3.org/2000/svg" xmlns:xlink="http://www.w3.org/1999/xlink" xml:space="preserve" width="150mm" height="48.571mm" style="shape-rendering:geometricPrecision; text-rendering:geometricPrecision; image-rendering:optimizeQuality; fill-rule:evenodd; clip-rule:evenodd" viewBox="0 0 15000 4857.1">
 <defs>
  <style type="text/css">
   <![CDATA[
    .fil1 {fill:#009846}
    .fil0 {fill:#FEFEFE;fill-rule:nonzero}
    .fil2 {fill:#D9DADA;fill-rule:nonzero}
   ]]>
  </style>
 </defs>
 <g id="&#x421;&#x43B;&#x43E;&#x439;_x0020_1">
  <metadata id="CorelCorpID_0Corel-Layer"></metadata>
  <g id="_1294920464">
   <path class="fil0" d="M5303.39 3132.3l-84.55 0c-1.81,94.23 -3.63,174.42 -5.45,240.54 -1.82,66.12 -3.64,122.35 -5.46,168.67 -1.81,46.33 -3.86,84.53 -6.13,114.63 -2.27,30.09 -4.77,56.22 -7.5,78.39 -3.64,31.68 -9.32,57.81 -17.05,78.4 -7.72,20.59 -17.95,36.43 -30.68,47.52 -12.72,11.08 -28.18,18.8 -46.36,23.16 -18.18,4.35 -39.99,6.53 -65.45,6.53l-19.09 0 0 -112.84 16.36 0c6.37,0 12.05,-0.79 17.05,-2.38 4.99,-1.58 9.09,-5.34 12.26,-11.28 3.19,-5.94 6.15,-14.26 8.87,-24.95 2.73,-10.69 5,-25.54 6.82,-44.54 3.64,-34.05 7.96,-105.52 12.95,-214.4 5,-108.89 7.96,-262.32 8.87,-460.29l334.08 0 0 870.68 -129.54 0 0 -757.84zm3443.47 -1974.06l0 465.76 161.76 0c17.12,0 31.25,-4.49 42.38,-13.46 11.12,-8.97 16.69,-20.36 16.69,-34.15l0 -370.54c0,-13.8 -5.57,-25.18 -16.69,-34.15 -11.13,-8.97 -25.26,-13.46 -42.38,-13.46l-161.76 0zm0 656.2l0 670.68 -243.94 0 0 -1517.32 482.74 0c61.63,0 114.7,17.94 159.2,53.82 44.51,35.88 66.76,78.66 66.76,128.34l0 482.31c0,49.68 -22.25,92.47 -66.76,128.35 -44.5,35.88 -97.57,53.82 -159.2,53.82l-238.8 0zm-1086.18 -846.64l644.52 0 0 196.65 -200.29 0 0 1320.67 -243.94 0 0 -1320.67 -200.29 0 0 -196.65zm-441.65 852.85l-200.29 0 0 664.47 -243.94 0 0 -1517.32 243.94 0 0 662.41 200.29 0 0 -662.41 243.94 0 0 1517.32 -243.94 0 0 -664.47zm-1219.7 -852.85l564.92 0 0 196.65 -320.98 0 0 465.76 320.98 0 0 190.44 -320.98 0 0 467.83 320.98 0 0 196.64 -564.92 0 0 -1517.32zm-962.92 0l243.94 0 0 1320.68 187.45 0 0 -1320.68 243.94 0 0 1320.68 102.71 0 0 372.6 -231.1 0 0 -175.96 -546.94 0 0 -1517.32zm6543.98 2175.09l-129.53 0 0 -117.33 129.53 0 0 117.33zm0.01 749.17l-129.55 0 0 -712.85 129.55 0 0 712.85zm-5784.76 -227.61l-103.63 0 -30 225.69 -124.09 0 129.54 -870.68 156.82 0 130.91 870.68 -126.82 0 -32.73 -225.69zm-88.63 -109.28l73.63 0 -36.81 -268.45 -36.82 268.45zm459.53 -162.73l73.63 0c9.09,0 16.59,-2.58 22.51,-7.72 5.91,-5.15 8.86,-11.68 8.86,-19.4l0 -209.46c0,-7.72 -2.95,-14.25 -8.86,-19.4 -5.92,-5.15 -13.42,-7.72 -22.51,-7.72l-54.54 0c-9.09,0 -16.59,2.57 -22.5,7.72 -5.91,5.15 -8.86,11.68 -8.86,19.6l0 160.36 -126.82 0 0 -192.43c0,-28.51 11.82,-53.06 35.45,-73.65 23.64,-20.59 51.82,-30.88 84.55,-30.88l133.63 0c32.73,0 60.91,10.29 84.55,30.88 23.63,20.59 35.45,44.94 35.45,73.45l0 232.62c0,30.68 -5.46,53.06 -16.36,66.91 -10.92,13.86 -24.1,21.98 -39.55,24.36 13.64,3.95 26.36,12.46 38.18,25.53 11.82,13.07 17.73,35.04 17.73,66.12l0 246.08c0,28.51 -11.82,53.26 -35.45,73.85 -23.64,20.59 -51.82,30.88 -84.55,30.88l-133.63 0c-32.73,0 -60.91,-10.29 -84.55,-30.88 -23.63,-20.59 -35.45,-45.14 -35.45,-73.65l0 -192.42 126.82 0 0 160.35c0,7.92 2.95,14.45 8.86,19.6 5.91,5.14 13.41,7.72 22.5,7.72l54.54 0c9.09,0 16.59,-2.58 22.51,-7.72 5.91,-5.15 8.86,-11.68 8.86,-19.6l0 -224.5c0,-7.92 -2.95,-14.45 -8.86,-19.6 -5.92,-5.15 -13.42,-7.72 -22.51,-7.72l-73.63 0 0 -109.28zm376.35 -372.98l299.99 0 0 112.84 -170.45 0 0 267.27 170.45 0 0 109.27 -170.45 0 0 268.46 170.45 0 0 112.84 -299.99 0 0 -870.68zm541.35 485.82l0 384.86 -129.54 0 0 -870.68 256.35 0c32.73,0 60.91,10.29 84.54,30.88 23.64,20.59 35.46,45.14 35.46,73.65l0 276.76c0,28.51 -11.82,53.06 -35.46,73.65 -23.63,20.59 -51.81,30.88 -84.54,30.88l-126.81 0zm0 -376.54l0 267.26 85.9 0c9.09,0 16.6,-2.57 22.51,-7.72 5.9,-5.15 8.86,-11.68 8.86,-19.6l0 -212.62c0,-7.92 -2.96,-14.45 -8.86,-19.6 -5.91,-5.15 -13.42,-7.72 -22.51,-7.72l-85.9 0zm608.15 380.1l-106.35 0 0 381.3 -129.55 0 0 -870.68 129.55 0 0 380.11 106.35 0 0 -380.11 129.55 0 0 870.68 -129.55 0 0 -381.3zm391.36 381.3c-32.72,0 -60.9,-10.29 -84.54,-30.88 -23.64,-20.59 -35.46,-45.14 -35.46,-73.65l0 -661.62c0,-28.51 11.82,-53.06 35.46,-73.65 23.64,-20.59 51.82,-30.88 84.54,-30.88l136.36 0c32.73,0 60.91,10.29 84.54,30.88 23.64,20.59 35.45,45.14 35.45,73.65l0 661.62c0,28.51 -11.81,53.06 -35.45,73.65 -23.63,20.59 -51.81,30.88 -84.54,30.88l-136.36 0zm9.55 -136.6c0,7.92 2.95,14.45 8.86,19.6 5.91,5.14 13.41,7.72 22.5,7.72l54.54 0c9.09,0 16.59,-2.58 22.5,-7.72 5.91,-5.15 8.86,-11.68 8.86,-19.6l0 -597.48c0,-7.92 -2.95,-14.45 -8.86,-19.6 -5.91,-5.15 -13.41,-7.72 -22.5,-7.72l-54.54 0c-9.09,0 -16.59,2.57 -22.5,7.72 -5.91,5.15 -8.86,11.68 -8.86,19.6l0 597.48zm388.61 -734.08l300 0 0 112.84 -170.45 0 0 757.84 -129.55 0 0 -870.68zm496.35 870.68c-32.72,0 -60.9,-10.29 -84.54,-30.88 -23.64,-20.59 -35.45,-45.14 -35.45,-73.65l0 -661.62c0,-28.51 11.81,-53.06 35.45,-73.65 23.64,-20.59 51.82,-30.88 84.54,-30.88l136.36 0c32.74,0 60.92,10.29 84.55,30.88 23.63,20.59 35.45,45.14 35.45,73.65l0 661.62c0,28.51 -11.82,53.06 -35.45,73.65 -23.63,20.59 -51.81,30.88 -84.55,30.88l-136.36 0zm9.55 -136.6c0,7.92 2.96,14.45 8.87,19.6 5.9,5.14 13.41,7.72 22.5,7.72l54.54 0c9.08,0 16.59,-2.58 22.5,-7.72 5.91,-5.15 8.86,-11.68 8.86,-19.6l0 -597.48c0,-7.92 -2.95,-14.45 -8.86,-19.6 -5.91,-5.15 -13.42,-7.72 -22.5,-7.72l-54.54 0c-9.09,0 -16.6,2.57 -22.5,7.72 -5.91,5.15 -8.87,11.68 -8.87,19.6l0 597.48zm634.06 -734.08l300 0 0 112.84 -170.45 0 0 757.84 -129.55 0 0 -870.68zm527.72 485.82l0 384.86 -129.54 0 0 -870.68 256.35 0c32.74,0 60.92,10.29 84.55,30.88 23.63,20.59 35.45,45.14 35.45,73.65l0 276.76c0,28.51 -11.82,53.06 -35.45,73.65 -23.63,20.59 -51.81,30.88 -84.55,30.88l-126.81 0zm0 -376.54l0 267.26 85.9 0c9.09,0 16.6,-2.57 22.51,-7.72 5.91,-5.15 8.86,-11.68 8.86,-19.6l0 -212.62c0,-7.92 -2.95,-14.45 -8.86,-19.6 -5.91,-5.15 -13.42,-7.72 -22.51,-7.72l-85.9 0zm535.89 535.71l-103.64 0 -29.99 225.69 -124.09 0 129.55 -870.68 156.81 0 130.9 870.68 -126.82 0 -32.72 -225.69zm-88.63 -109.28l73.63 0 -36.82 -268.45 -36.81 268.45zm482.71 -426.43l0 270.83 81.82 0c9.09,0 16.58,-2.58 22.5,-7.72 5.9,-5.15 8.86,-11.68 8.86,-19.41l0 -216.58c0,-7.72 -2.96,-14.25 -8.86,-19.4 -5.92,-5.15 -13.41,-7.72 -22.5,-7.72l-81.82 0zm0 380.1l0 272.02 81.82 0c9.09,0 16.58,-2.58 22.5,-7.72 5.9,-5.15 8.86,-11.68 8.86,-19.6l0 -217.37c0,-7.92 -2.96,-14.45 -8.86,-19.6 -5.92,-5.15 -13.41,-7.73 -22.5,-7.73l-81.82 0zm242.72 276.57c0,28.51 -11.82,53.26 -35.45,73.85 -23.64,20.59 -51.82,30.88 -84.55,30.88l-252.26 0 0 -870.68 252.26 0c32.73,0 60.91,10.29 84.55,30.88 23.63,20.59 35.45,44.94 35.45,73.45l0 239.75c0,30.68 -6.59,53.25 -19.77,67.51 -13.18,14.25 -30.68,22.17 -52.5,23.75 20.91,2.38 38.18,9.5 51.81,21.38 13.65,11.88 20.46,35.24 20.46,70.28l0 238.95zm507.26 -280.13l0 384.86 -129.55 0 0 -870.68 256.36 0c32.72,0 60.9,10.29 84.54,30.88 23.63,20.59 35.46,45.14 35.46,73.65l0 276.76c0,28.51 -11.83,53.06 -35.46,73.65 -23.64,20.59 -51.82,30.88 -84.54,30.88l-126.81 0zm0 -376.54l0 267.26 85.9 0c9.09,0 16.59,-2.57 22.5,-7.72 5.91,-5.15 8.87,-11.68 8.87,-19.6l0 -212.62c0,-7.92 -2.96,-14.45 -8.87,-19.6 -5.91,-5.15 -13.41,-7.72 -22.5,-7.72l-85.9 0zm526.34 340.91l57.27 -450.19 122.73 0 -96.81 656.87c-6.37,43.56 -14.33,79.39 -23.88,107.5 -9.54,28.11 -20.9,49.89 -34.08,65.33 -13.19,15.44 -28.63,26.13 -46.37,32.07 -17.72,5.94 -37.95,8.91 -60.68,8.91l-46.36 0 0 -112.84 38.19 0c8.17,0 15.45,-1.39 21.81,-4.16 6.37,-2.77 12.27,-8.51 17.73,-17.22 5.45,-8.72 10.45,-21.19 15,-37.42 4.54,-16.23 8.64,-38.21 12.27,-65.93l8.18 -65.33 -102.27 0 -105 -567.78 126.82 0 66.81 450.19 28.64 0zm400.9 -340.91l0 270.83 81.82 0c9.09,0 16.59,-2.58 22.5,-7.72 5.9,-5.15 8.86,-11.68 8.86,-19.41l0 -216.58c0,-7.72 -2.96,-14.25 -8.86,-19.4 -5.91,-5.15 -13.41,-7.72 -22.5,-7.72l-81.82 0zm0 380.1l0 272.02 81.82 0c9.09,0 16.59,-2.58 22.5,-7.72 5.9,-5.15 8.86,-11.68 8.86,-19.6l0 -217.37c0,-7.92 -2.96,-14.45 -8.86,-19.6 -5.91,-5.15 -13.41,-7.73 -22.5,-7.73l-81.82 0zm242.72 276.57c0,28.51 -11.82,53.26 -35.46,73.85 -23.63,20.59 -51.81,30.88 -84.54,30.88l-252.26 0 0 -870.68 252.26 0c32.73,0 60.91,10.29 84.54,30.88 23.64,20.59 35.46,44.94 35.46,73.45l0 239.75c0,30.68 -6.59,53.25 -19.77,67.51 -13.18,14.25 -30.68,22.17 -52.5,23.75 20.9,2.38 38.18,9.5 51.82,21.38 13.63,11.88 20.45,35.24 20.45,70.28l0 238.95zm336.81 -120.96l-103.64 0 -30 225.69 -124.08 0 129.54 -870.68 156.81 0 130.91 870.68 -126.82 0 -32.72 -225.69zm-88.63 -109.28l73.63 0 -36.82 -268.45 -36.81 268.45zm589.06 -46.33l-106.35 0 0 381.3 -129.55 0 0 -870.68 129.55 0 0 380.11 106.35 0 0 -380.11 129.55 0 0 870.68 -129.55 0 0 -381.3zm507.26 0l-106.35 0 0 381.3 -129.55 0 0 -870.68 129.55 0 0 380.11 106.35 0 0 -380.11 129.55 0 0 870.68 -129.55 0 0 -381.3zm358.63 14.26c-23.64,-7.13 -42.95,-19.6 -57.96,-37.42 -14.99,-17.82 -22.49,-38.21 -22.49,-61.17l0 -300.52c0,-28.51 11.81,-53.06 35.45,-73.65 23.63,-20.59 51.82,-30.88 84.54,-30.88l256.36 0 0 870.68 -129.55 0 0 -361.1 -44.99 0 -137.72 361.1 -128.18 0 144.54 -367.04zm49.09 -130.66c0,7.92 2.95,14.45 8.86,19.6 5.91,5.15 13.41,7.72 22.5,7.72l85.9 0 0 -291.02 -85.9 0c-9.09,0 -16.59,2.57 -22.5,7.72 -5.91,5.15 -8.86,11.68 -8.86,19.6l0 236.38z"></path>
   <path class="fil1" d="M2101.71 1.38l1051.6 607.13 1051.58 607.15 0 1214.27 0 1214.26 -1051.58 607.15 -1051.6 607.13 -1051.6 -607.13 -1051.58 -607.15 0 -1214.26 0 -1214.27 1051.58 -607.15 1051.6 -607.13zm0 2221.5c114.36,0 207.05,92.69 207.05,207.05 0,114.35 -92.69,207.04 -207.05,207.04 -114.35,0 -207.05,-92.69 -207.05,-207.04 0,-114.36 92.7,-207.05 207.05,-207.05zm77.45 -1869.76l841.19 485.69 918.65 530.36 0 1060.76 0 971.31 -1759.84 -3048.12zm1671.31 3188.67l-830.12 479.25 -918.64 530.4 -918.64 -530.4 -830.12 -479.25 3497.52 0zm-3586.05 -140.56l0 -971.3 0 -1060.76 918.65 -530.36 841.17 -485.67 -1759.82 3048.09z"></path>
  </g>
 </g>
</svg>